<?xml version="1.0" standalone="no"?>
<!DOCTYPE svg PUBLIC "-//W3C//DTD SVG 20010904//EN"
 "http://www.w3.org/TR/2001/REC-SVG-20010904/DTD/svg10.dtd">
<svg version="1.0" xmlns="http://www.w3.org/2000/svg"
 width="700.000000pt" height="700.000000pt" viewBox="0 0 700.000000 700.000000"
 preserveAspectRatio="xMidYMid meet">
<metadata>
Created by potrace 1.11, written by Peter Selinger 2001-2013
</metadata>
<g transform="translate(0.000000,700.000000) scale(0.100000,-0.100000)"
fill="#000000" stroke="none">
<path d="M1986 5088 c-114 -20 -256 -106 -377 -227 -184 -186 -304 -429 -372
-757 -25 -118 -30 -152 -43 -269 -19 -189 -19 -547 2 -725 3 -30 7 -66 9 -80
6 -60 27 -188 37 -225 5 -22 11 -47 13 -55 16 -83 64 -225 109 -324 120 -261
325 -445 549 -496 67 -15 180 -19 238 -8 170 31 344 179 487 416 39 64 126
244 142 294 6 21 15 40 19 42 4 3 34 6 67 7 204 7 383 147 446 348 l22 70 166
0 166 -1 17 -56 c63 -213 254 -362 463 -362 49 0 52 -2 64 -32 144 -362 326
-600 528 -691 52 -23 47 -22 115 -35 114 -23 313 15 407 78 14 9 32 19 40 22
8 4 46 32 83 63 127 105 243 291 313 503 19 57 36 117 39 134 3 17 8 34 10 38
2 3 11 48 20 100 22 130 23 137 30 205 4 33 9 76 12 95 8 60 10 521 2 600 -21
216 -19 203 -50 350 -98 477 -349 833 -674 955 -114 44 -307 40 -382 -7 -18
-11 -33 -26 -33 -33 0 -27 -43 -38 -180 -50 -320 -26 -1663 -25 -1975 1 -157
13 -185 20 -185 48 -1 16 -38 41 -84 56 -46 15 -192 19 -260 8z"/>
</g>
</svg>
